<?xml version="1.0" encoding="UTF-8" standalone="no"?>
<!-- Created with Inkscape (http://www.inkscape.org/) -->

<svg
   width="210mm"
   height="210mm"
   viewBox="0 0 210 210"
   version="1.1"
   id="svg5"
   sodipodi:docname="haptic-studios-compact-logo.svg"
   inkscape:version="1.2.2 (732a01da63, 2022-12-09)"
   inkscape:export-filename="haptic-studios-compact-logo.png"
   inkscape:export-xdpi="96"
   inkscape:export-ydpi="96"
   xmlns:inkscape="http://www.inkscape.org/namespaces/inkscape"
   xmlns:sodipodi="http://sodipodi.sourceforge.net/DTD/sodipodi-0.dtd"
   xmlns="http://www.w3.org/2000/svg"
   xmlns:svg="http://www.w3.org/2000/svg">
  <sodipodi:namedview
     id="namedview7"
     pagecolor="#ffffff"
     bordercolor="#000000"
     borderopacity="0.25"
     inkscape:showpageshadow="2"
     inkscape:pageopacity="0.0"
     inkscape:pagecheckerboard="0"
     inkscape:deskcolor="#d1d1d1"
     inkscape:document-units="mm"
     showgrid="false"
     inkscape:zoom="0.74564394"
     inkscape:cx="355.39751"
     inkscape:cy="315.83439"
     inkscape:window-width="1350"
     inkscape:window-height="1040"
     inkscape:window-x="22"
     inkscape:window-y="41"
     inkscape:window-maximized="0"
     inkscape:current-layer="svg5" />
  <defs
     id="defs2">
    <linearGradient
       id="linearGradient11290"
       inkscape:swatch="solid">
      <stop
         style="stop-color:#000000;stop-opacity:1;"
         offset="0"
         id="stop11288" />
    </linearGradient>
    <rect
       x="76.443993"
       y="64.373886"
       width="635.69214"
       height="142.159"
       id="rect10028" />
    <clipPath
       clipPathUnits="userSpaceOnUse"
       id="clipPath9120">
      <rect
         style="fill:#000000;fill-opacity:0;fill-rule:evenodd;stroke:#000000;stroke-width:2.765;stroke-linecap:round;stroke-linejoin:miter;stroke-miterlimit:4;stroke-dasharray:none;stroke-dashoffset:0;stroke-opacity:1"
         id="rect9122"
         width="196.58066"
         height="283.51614"
         x="6.7419291"
         y="6.5645123"
         inkscape:label="Box" />
    </clipPath>
    <clipPath
       clipPathUnits="userSpaceOnUse"
       id="clipPath9124">
      <rect
         style="fill:#000000;fill-opacity:0;fill-rule:evenodd;stroke:#000000;stroke-width:2.765;stroke-linecap:round;stroke-linejoin:miter;stroke-miterlimit:4;stroke-dasharray:none;stroke-dashoffset:0;stroke-opacity:1"
         id="rect9126"
         width="196.58066"
         height="283.51614"
         x="6.7419291"
         y="6.5645123"
         inkscape:label="Box" />
    </clipPath>
    <clipPath
       clipPathUnits="userSpaceOnUse"
       id="clipPath3460">
      <rect
         style="fill:#000000;fill-opacity:0;fill-rule:evenodd;stroke:#000000;stroke-width:2.31184;stroke-linecap:round;stroke-linejoin:miter;stroke-miterlimit:4;stroke-dasharray:none;stroke-dashoffset:0;stroke-opacity:1"
         id="rect3462"
         width="197.03383"
         height="197.7435"
         x="6.5153546"
         y="6.1605153"
         inkscape:label="Clip" />
    </clipPath>
    <clipPath
       clipPathUnits="userSpaceOnUse"
       id="clipPath3464">
      <rect
         style="fill:#000000;fill-opacity:0;fill-rule:evenodd;stroke:#000000;stroke-width:2.31184;stroke-linecap:round;stroke-linejoin:miter;stroke-miterlimit:4;stroke-dasharray:none;stroke-dashoffset:0;stroke-opacity:1"
         id="rect3466"
         width="197.03383"
         height="197.7435"
         x="6.5153546"
         y="6.1605153"
         inkscape:label="Clip" />
    </clipPath>
    <clipPath
       clipPathUnits="userSpaceOnUse"
       id="clipPath3468">
      <rect
         style="fill:#000000;fill-opacity:0;fill-rule:evenodd;stroke:#000000;stroke-width:1.13712;stroke-linecap:round;stroke-linejoin:miter;stroke-miterlimit:4;stroke-dasharray:none;stroke-dashoffset:0;stroke-opacity:1"
         id="rect3470"
         width="96.238632"
         height="97.947098"
         x="65.307716"
         y="49.691826"
         inkscape:label="Clip" />
    </clipPath>
    <clipPath
       clipPathUnits="userSpaceOnUse"
       id="clipPath3472">
      <rect
         style="fill:#000000;fill-opacity:0;fill-rule:evenodd;stroke:#000000;stroke-width:2.31184;stroke-linecap:round;stroke-linejoin:miter;stroke-miterlimit:4;stroke-dasharray:none;stroke-dashoffset:0;stroke-opacity:1"
         id="rect3474"
         width="197.03383"
         height="197.7435"
         x="6.5153546"
         y="6.1605153"
         inkscape:label="Clip" />
    </clipPath>
  </defs>
  <g
     inkscape:groupmode="layer"
     id="layer5"
     inkscape:label="Background">
    <rect
       style="fill:#000000;fill-opacity:1;fill-rule:nonzero;stroke:#000000;stroke-width:3.244;stroke-dasharray:none;stroke-opacity:0"
       id="rect12837"
       width="196.21072"
       height="283.52701"
       x="6.5236292"
       y="7.0254478"
       clip-path="url(#clipPath3472)" />
  </g>
  <g
     inkscape:label="Spiral"
     inkscape:groupmode="layer"
     id="layer1"
     clip-path="url(#clipPath9124)">
    <path
       sodipodi:type="spiral"
       style="fill:none;fill-opacity:1;fill-rule:evenodd;stroke:#ffffff;stroke-width:3.79870072;stroke-dasharray:none;stroke-dashoffset:0;stroke-opacity:1"
       id="path2060"
       sodipodi:cx="113.90322"
       sodipodi:cy="96.516129"
       sodipodi:expansion="3.2"
       sodipodi:revolution="11.2"
       sodipodi:radius="119.19324"
       sodipodi:argument="-21.051338"
       sodipodi:t0="0"
       d="m 113.90322,96.516129 c -1.2e-4,-1.7e-4 4.7e-4,-3.6e-4 5e-4,-3.66e-4 0.002,-4.27e-4 0.003,0.0034 0.003,0.005 -0.001,0.009 -0.0135,0.0101 -0.0202,0.0077 -0.0218,-0.0078 -0.023,-0.03692 -0.014,-0.05455 0.0218,-0.04308 0.0807,-0.04332 0.11716,-0.0208 0.0751,0.04631 0.0728,0.152049 0.0267,0.217702 -0.0844,0.120105 -0.25876,0.113248 -0.36626,0.03039 -0.18076,-0.139307 -0.16635,-0.408811 -0.0304,-0.573345 0.21441,-0.259544 0.61047,-0.233956 0.84975,-0.02527 0.35907,0.313164 0.31792,0.872228 0.0133,1.206572 -0.4391,0.482014 -1.2028,0.420134 -1.65519,-0.007 -0.63108,-0.59584 -0.54252,-1.611086 0.0374,-2.20721 0.78708,-0.809026 2.10616,-0.687019 2.87446,0.07971 1.01867,1.016575 0.85562,2.697233 -0.13557,3.668972 -1.28816,1.262865 -3.39372,1.050329 -4.60299,-0.206857 -1.54449,-1.605691 -1.27317,-4.205128 0.29539,-5.688905 1.97313,-1.866475 5.14113,-1.526208 6.93932,0.403041 2.23179,2.394453 1.81151,6.211509 -0.53172,8.366976 -2.87371,2.64342 -7.42618,2.13119 -9.98477,-0.68336 -3.10441,-3.414969 -2.48737,-8.795152 0.8599,-11.805754 4.02238,-3.617816 10.32858,-2.882179 13.84313,1.063342 4.18672,4.700119 3.31779,12.036692 -1.29569,16.110212 -5.45239,4.81426 -13.92982,3.79638 -18.62046,-1.55896 -5.503563,-6.28346 -4.320158,-16.018423 1.85521,-21.387464 7.19763,-6.257819 18.31303,-4.891334 24.42493,2.186519 7.08022,8.199215 5.51214,20.824235 -2.55497,27.746655 -9.29261,7.97401 -23.56279,6.18485 -31.366602,-2.96268 -8.942417,-10.482186 -6.911707,-26.539458 3.411776,-35.29879 11.772416,-9.988728 29.765136,-7.695006 39.557386,3.904409 11.11624,13.167748 8.53705,33.250771 -4.44274,44.156631 -14.6727,12.32827 -37.007407,9.44015 -49.110891,-5.02896 -13.628167,-16.29179 -10.406633,-41.046142 5.66527,-54.434598 18.029601,-15.019288 45.378171,-11.438848 60.142301,6.353877 16.50502,19.890718 12.53916,50.014741 -7.09701,66.248651 -21.87976,18.08877 -54.967192,13.70992 -72.768367,-7.89693 C 50.448191,104.42927 55.268617,68.183755 78.978039,48.714399 105.2383,27.150377 144.84338,32.442021 166.08527,58.390572 189.54771,87.051681 183.75415,130.2246 155.42521,153.34684 124.21657,178.81952 77.260662,172.49231 52.146766,141.63699 24.548517,107.72936 31.442206,56.768425 64.974637,29.548089 101.73748,-0.29457466 156.93242,7.1994741 186.37751,43.564537 218.58697,83.343636 210.4576,143.00852 171.09958,174.80019 128.13837,209.50237 63.760603,200.70164 29.496958,158.18553 -7.827445,111.87147 1.6817703,42.53086 47.525973,5.6662857 86.335022,-25.541131 142.27444,-27.256618 183.70567,-0.09984572"
       transform="matrix(2.0473464,0,0,2.0188806,-127.19217,-94.16135)"
       clip-path="url(#clipPath3468)" />
  </g>
  <g
     inkscape:groupmode="layer"
     id="layer2"
     inkscape:label="Hand"
     clip-path="url(#clipPath9120)">
    <path
       style="fill:#000000;fill-opacity:1;stroke-width:0.216029"
       d="M 66.197786,260.11831 49.683587,123.94859"
       id="path1692"
       inkscape:label="path1692"
       clip-path="url(#clipPath3464)" />
    <path
       style="fill:#000000;fill-opacity:1;stroke:#ffffff;stroke-width:3.72100016;stroke-linecap:round;stroke-linejoin:miter;stroke-miterlimit:4;stroke-dasharray:none;stroke-dashoffset:0;stroke-opacity:1"
       d="m 17.356247,232.71369 c 4.54739,-15.54914 3.145071,-33.35431 1.722522,-49.37021 0.330051,-4.70972 -0.484693,-8.88175 -0.264654,-14.45596 -0.458405,-16.33759 -6.655648,-29.81703 -9.0943691,-45.82458 -1.146016,-6.53687 6.1825531,-11.81796 9.2172001,-3.28244 3.988133,16.9702 7.242948,31.54804 13.431435,47.52806 2.127005,1.87032 3.153835,0.11001 5.390857,-2.31036 3.676278,-22.88808 -1.433598,-44.15393 -1.580288,-66.304108 -0.458406,-7.62788 8.3074,-9.21424 9.71929,-2.9249 2.420385,22.076838 3.922878,39.377348 7.883507,61.234168 1.980316,2.80543 5.060805,2.86044 7.591209,0.82512 3.593906,-23.08534 4.976403,-46.55545 6.297696,-69.375188 2.035314,-7.35283 11.468515,-8.02912 11.358501,1.12068 0.03675,22.791958 -2.070388,46.837768 -0.823524,70.069798 0.95349,2.56708 1.246858,4.25401 5.170817,4.07065 3.172166,-2.86046 11.568557,-39.2261 16.886084,-62.65981 2.54874,-9.736548 13.06753,-8.746398 11.3806,2.31036 -4.65741,25.78076 -10.82835,46.23376 -15.061337,74.23053 0.403401,5.06078 0.511244,10.34811 -0.84564,16.94915 0.330057,5.57423 0.899028,13.52137 4.639627,18.5455 4.69407,1.87029 8.78144,4.48538 14.0256,2.72509 8.58136,-3.70392 11.66186,-9.93824 19.58312,-11.11175 8.72805,-1.10019 14.26562,-0.66012 15.51247,4.29066 -3.30053,3.66724 -35.20561,20.53658 -50.608053,34.10542 -14.08224,9.82823 -30.254805,13.16544 -43.126854,28.16447 -17.089383,24.42388 -25.597402,51.70824 -38.396103,77.56234 -17.34609206,0.0367 -34.69218,0.0733 -52.038289,0.11001 l 0.33006,-54.45867 c 15.365783,-22.04015 38.0930229,-38.40366 51.698516,-61.76403 z"
       id="path1889"
       sodipodi:nodetypes="ccccccccccccccccccccccccccccc"
       inkscape:label="path1889"
       clip-path="url(#clipPath3460)" />
  </g>
  <g
     inkscape:groupmode="layer"
     id="layer4"
     inkscape:label="Title"
     style="fill:#000000;fill-opacity:1" />
  <g
     inkscape:groupmode="layer"
     id="layer3"
     inkscape:label="Bounding Box">
    <rect
       style="fill:#000000;fill-opacity:0;fill-rule:evenodd;stroke:#000000;stroke-width:2.31184;stroke-linecap:round;stroke-linejoin:miter;stroke-miterlimit:4;stroke-dasharray:none;stroke-dashoffset:0;stroke-opacity:1"
       id="rect2140"
       width="197.03383"
       height="197.7435"
       x="6.5153546"
       y="6.1605158"
       inkscape:label="Clip" />
  </g>
</svg>
